<?xml version="1.0" encoding="utf-8"?>
<!-- Generator: Adobe Illustrator 25.4.1, SVG Export Plug-In . SVG Version: 6.00 Build 0)  -->
<svg version="1.1" id="Layer_1" xmlns="http://www.w3.org/2000/svg" xmlns:xlink="http://www.w3.org/1999/xlink" x="0px" y="0px"
	 viewBox="0 0 64 64" style="enable-background:new 0 0 64 64;" xml:space="preserve">
<style type="text/css">
	.st0{fill:none;}
	.st1{fill-rule:evenodd;clip-rule:evenodd;fill:#3F51B5;}
	.st2{fill:#FFFFFE;}
</style>
<g id="Layer_x0020_1">
	<rect class="st0" width="64" height="64"/>
	<path class="st1" d="M8,0h48c4.4,0,8,3.6,8,8v48c0,4.4-3.6,8-8,8H8c-4.4,0-8-3.6-8-8V8C0,3.6,3.6,0,8,0z"/>
	<path class="st2" d="M20,42c0-3.6,1.4-6.5,3.4-8.5c2.3-2.3,5.5-3.5,8.6-3.5c3.2,0,6.3,1.3,8.6,3.5c2,2,3.4,4.9,3.4,8.5
		C36,42,28,42,20,42L20,42z"/>
	<polygon class="st2" points="31,29 31,19 33,19 33,29 	"/>
	<polygon class="st2" points="56,45 8,45 8,43 56,43 	"/>
	<polygon class="st2" points="21,34.5 14.3,27.7 15.7,26.3 22.4,33.1 	"/>
	<polygon class="st2" points="41.4,33.1 48.3,26.3 49.7,27.7 42.8,34.5 	"/>
</g>
</svg>
